<svg width="31" height="31" viewBox="0 0 31 31" fill="none" xmlns="http://www.w3.org/2000/svg">
<path d="M29.1653 13.5393H27.8858C24.8766 13.5393 23.3691 9.89384 25.4971 7.76145L26.4014 6.85412C26.6996 6.5333 26.8618 6.10904 26.854 5.67071C26.8462 5.23239 26.6689 4.8142 26.3596 4.50424C26.0502 4.19429 25.6328 4.01676 25.1954 4.00905C24.7579 4.00134 24.3346 4.16405 24.0145 4.46291L23.1096 5.36846C20.9816 7.50026 17.3437 5.99021 17.3437 2.97488V1.6927C17.3437 1.24377 17.1658 0.813225 16.849 0.495782C16.5322 0.178338 16.1025 0 15.6545 0C15.2065 0 14.7768 0.178338 14.4601 0.495782C14.1433 0.813225 13.9653 1.24377 13.9653 1.6927V2.97547C13.9653 5.99081 10.3274 7.50085 8.19939 5.36906L7.29452 4.46291C6.97444 4.16405 6.55109 4.00134 6.11367 4.00905C5.67624 4.01676 5.25887 4.19429 4.94948 4.50424C4.64008 4.8142 4.46281 5.23239 4.45501 5.67071C4.44721 6.10904 4.60948 6.5333 4.90764 6.85412L5.81311 7.76145C7.94111 9.89384 6.43358 13.5393 3.42446 13.5393H2.14374C1.91928 13.535 1.69624 13.5757 1.48764 13.6589C1.27905 13.742 1.08909 13.866 0.928861 14.0236C0.768637 14.1811 0.641365 14.3691 0.554483 14.5766C0.4676 14.784 0.422852 15.0067 0.422852 15.2317C0.422852 15.4566 0.4676 15.6793 0.554483 15.8868C0.641365 16.0942 0.768637 16.2822 0.928861 16.4398C1.08909 16.5973 1.27905 16.7213 1.48764 16.8045C1.69624 16.8876 1.91928 16.9283 2.14374 16.9241H3.42327C6.43239 16.9241 7.93992 20.5701 5.81192 22.7025L4.90764 23.6092C4.6124 23.9306 4.45258 24.3539 4.46159 24.7906C4.4706 25.2274 4.64774 25.6437 4.95599 25.9526C5.26423 26.2614 5.6797 26.439 6.11553 26.448C6.55136 26.457 6.9738 26.2969 7.29452 26.001L8.19939 25.0937C10.3274 22.9613 13.9653 24.4719 13.9653 27.4873V28.7688C13.9653 29.2178 14.1433 29.6483 14.4601 29.9658C14.7768 30.2832 15.2065 30.4615 15.6545 30.4615C16.1025 30.4615 16.5322 30.2832 16.849 29.9658C17.1658 29.6483 17.3437 29.2178 17.3437 28.7688V27.4885C17.3437 24.4731 20.9816 22.9625 23.1096 25.0949L24.0145 26.001C24.3352 26.2969 24.7577 26.457 25.1935 26.448C25.6293 26.439 26.0448 26.2614 26.353 25.9526C26.6613 25.6437 26.8384 25.2274 26.8474 24.7906C26.8564 24.3539 26.6966 23.9306 26.4014 23.6092L25.4959 22.7025C23.3679 20.5701 24.8754 16.9241 27.8846 16.9241H29.1635C29.388 16.9283 29.611 16.8876 29.8196 16.8045C30.0282 16.7213 30.2182 16.5973 30.3784 16.4398C30.5386 16.2822 30.6659 16.0942 30.7528 15.8868C30.8396 15.6793 30.8844 15.4566 30.8844 15.2317C30.8844 15.0067 30.8396 14.784 30.7528 14.5766C30.6659 14.3691 30.5386 14.1811 30.3784 14.0236C30.2182 13.866 30.0282 13.742 29.8196 13.6589C29.611 13.5757 29.388 13.535 29.1635 13.5393H29.1653ZM13.7545 16.1839C13.1908 16.1839 12.6398 16.0164 12.1711 15.7026C11.7025 15.3888 11.3372 14.9428 11.1215 14.4209C10.9057 13.8991 10.8493 13.3249 10.9593 12.7709C11.0692 12.2169 11.3407 11.708 11.7393 11.3086C12.1378 10.9092 12.6457 10.6372 13.1985 10.527C13.7514 10.4168 14.3244 10.4734 14.8452 10.6896C15.3659 10.9057 15.811 11.2718 16.1242 11.7414C16.4374 12.211 16.6045 12.7632 16.6045 13.328C16.6045 14.0855 16.3042 14.8119 15.7698 15.3475C15.2353 15.883 14.5104 16.1839 13.7545 16.1839V16.1839ZM18.5045 19.5158C18.2227 19.5158 17.9472 19.432 17.7128 19.2751C17.4785 19.1182 17.2958 18.8952 17.188 18.6343C17.0801 18.3734 17.0519 18.0863 17.1069 17.8093C17.1619 17.5323 17.2976 17.2778 17.4969 17.0781C17.6962 16.8784 17.9501 16.7424 18.2265 16.6873C18.5029 16.6322 18.7895 16.6605 19.0498 16.7686C19.3102 16.8767 19.5328 17.0597 19.6894 17.2945C19.8459 17.5293 19.9295 17.8054 19.9295 18.0878C19.9295 18.4666 19.7794 18.8298 19.5121 19.0975C19.2449 19.3653 18.8824 19.5158 18.5045 19.5158Z" fill="#A6A6A6"/>
</svg>
